<mxfile host="app.diagrams.net" modified="2022-09-19T06:55:46.826Z" agent="5.0 (Macintosh; Intel Mac OS X 10_15_7) AppleWebKit/537.36 (KHTML, like Gecko) Chrome/105.0.0.0 Safari/537.36" etag="D_jXV2hWplan2riWlay7" version="20.1.1" type="github">
  <diagram id="prtHgNgQTEPvFCAcTncT" name="Page-1">
    <mxGraphModel dx="1351" dy="841" grid="1" gridSize="10" guides="1" tooltips="1" connect="1" arrows="1" fold="1" page="1" pageScale="1" pageWidth="827" pageHeight="1169" math="0" shadow="0">
      <root>
        <mxCell id="0" />
        <mxCell id="1" parent="0" />
        <mxCell id="ipQtGYI-5La4QHJU2IMe-39" value="" style="edgeStyle=orthogonalEdgeStyle;rounded=0;orthogonalLoop=1;jettySize=auto;html=1;fontColor=#000000;" edge="1" parent="1" source="ipQtGYI-5La4QHJU2IMe-37" target="ipQtGYI-5La4QHJU2IMe-38">
          <mxGeometry relative="1" as="geometry" />
        </mxCell>
        <mxCell id="ipQtGYI-5La4QHJU2IMe-37" value="&lt;meta charset=&quot;utf-8&quot;&gt;&lt;div style=&quot;color: rgb(212, 212, 212); background-color: rgb(30, 30, 30); font-family: Menlo, Monaco, &amp;quot;Courier New&amp;quot;, monospace; font-weight: normal; font-size: 12px; line-height: 18px;&quot;&gt;&lt;div&gt;&lt;span style=&quot;color: #dcdcaa;&quot;&gt;_init&lt;/span&gt;&lt;span style=&quot;color: #d4d4d4;&quot;&gt;(&lt;/span&gt;&lt;span style=&quot;color: #9cdcfe;&quot;&gt;options&lt;/span&gt;&lt;span style=&quot;color: #d4d4d4;&quot;&gt;)&lt;/span&gt;&lt;/div&gt;&lt;/div&gt;" style="rounded=1;whiteSpace=wrap;html=1;labelBackgroundColor=none;fontColor=#000000;fillColor=default;gradientColor=none;" vertex="1" parent="1">
          <mxGeometry x="130" y="60" width="120" height="60" as="geometry" />
        </mxCell>
        <mxCell id="ipQtGYI-5La4QHJU2IMe-41" value="" style="edgeStyle=orthogonalEdgeStyle;rounded=0;orthogonalLoop=1;jettySize=auto;html=1;fontColor=#000000;" edge="1" parent="1" source="ipQtGYI-5La4QHJU2IMe-38" target="ipQtGYI-5La4QHJU2IMe-40">
          <mxGeometry relative="1" as="geometry" />
        </mxCell>
        <mxCell id="ipQtGYI-5La4QHJU2IMe-38" value="&lt;div style=&quot;color: rgb(212, 212, 212); background-color: rgb(30, 30, 30); font-family: Menlo, Monaco, &amp;quot;Courier New&amp;quot;, monospace; line-height: 18px;&quot;&gt;&lt;span style=&quot;color: #dcdcaa;&quot;&gt;initLifecycle&lt;/span&gt;&lt;/div&gt;" style="whiteSpace=wrap;html=1;fontColor=#000000;rounded=1;labelBackgroundColor=none;gradientColor=none;" vertex="1" parent="1">
          <mxGeometry x="130" y="140" width="120" height="60" as="geometry" />
        </mxCell>
        <mxCell id="ipQtGYI-5La4QHJU2IMe-43" value="" style="edgeStyle=orthogonalEdgeStyle;rounded=0;orthogonalLoop=1;jettySize=auto;html=1;fontColor=#000000;" edge="1" parent="1" source="ipQtGYI-5La4QHJU2IMe-40" target="ipQtGYI-5La4QHJU2IMe-42">
          <mxGeometry relative="1" as="geometry" />
        </mxCell>
        <mxCell id="ipQtGYI-5La4QHJU2IMe-40" value="&lt;meta charset=&quot;utf-8&quot;&gt;&lt;div style=&quot;color: rgb(212, 212, 212); background-color: rgb(30, 30, 30); font-family: Menlo, Monaco, &amp;quot;Courier New&amp;quot;, monospace; font-weight: normal; font-size: 12px; line-height: 18px;&quot;&gt;&lt;div&gt;&lt;span style=&quot;color: #dcdcaa;&quot;&gt;initEvents&lt;/span&gt;&lt;/div&gt;&lt;/div&gt;" style="whiteSpace=wrap;html=1;fontColor=#000000;rounded=1;labelBackgroundColor=none;gradientColor=none;" vertex="1" parent="1">
          <mxGeometry x="130" y="220" width="120" height="60" as="geometry" />
        </mxCell>
        <mxCell id="ipQtGYI-5La4QHJU2IMe-47" value="" style="edgeStyle=orthogonalEdgeStyle;rounded=0;orthogonalLoop=1;jettySize=auto;html=1;fontColor=#000000;" edge="1" parent="1" source="ipQtGYI-5La4QHJU2IMe-42" target="ipQtGYI-5La4QHJU2IMe-46">
          <mxGeometry relative="1" as="geometry" />
        </mxCell>
        <mxCell id="ipQtGYI-5La4QHJU2IMe-42" value="&lt;meta charset=&quot;utf-8&quot;&gt;&lt;div style=&quot;color: rgb(212, 212, 212); background-color: rgb(30, 30, 30); font-family: Menlo, Monaco, &amp;quot;Courier New&amp;quot;, monospace; font-weight: normal; font-size: 12px; line-height: 18px;&quot;&gt;&lt;div&gt;&lt;span style=&quot;color: #dcdcaa;&quot;&gt;initRender&lt;/span&gt;&lt;/div&gt;&lt;/div&gt;" style="whiteSpace=wrap;html=1;fontColor=#000000;rounded=1;labelBackgroundColor=none;gradientColor=none;" vertex="1" parent="1">
          <mxGeometry x="130" y="300" width="120" height="60" as="geometry" />
        </mxCell>
        <mxCell id="ipQtGYI-5La4QHJU2IMe-49" value="" style="edgeStyle=orthogonalEdgeStyle;rounded=0;orthogonalLoop=1;jettySize=auto;html=1;fontColor=#000000;" edge="1" parent="1" source="ipQtGYI-5La4QHJU2IMe-46" target="ipQtGYI-5La4QHJU2IMe-48">
          <mxGeometry relative="1" as="geometry" />
        </mxCell>
        <mxCell id="ipQtGYI-5La4QHJU2IMe-46" value="&lt;div style=&quot;color: rgb(212, 212, 212); background-color: rgb(30, 30, 30); font-family: Menlo, Monaco, &amp;quot;Courier New&amp;quot;, monospace; line-height: 18px;&quot;&gt;&lt;span style=&quot;color: #dcdcaa;&quot;&gt;callHook&lt;/span&gt;(&lt;span style=&quot;color: #4fc1ff;&quot;&gt;vm&lt;/span&gt;, &lt;span style=&quot;color: #ce9178;&quot;&gt;&#39;beforeCreate&#39;&lt;/span&gt;)&lt;/div&gt;" style="whiteSpace=wrap;html=1;fontColor=#000000;rounded=1;labelBackgroundColor=none;gradientColor=none;" vertex="1" parent="1">
          <mxGeometry x="130" y="380" width="120" height="60" as="geometry" />
        </mxCell>
        <mxCell id="ipQtGYI-5La4QHJU2IMe-51" value="" style="edgeStyle=orthogonalEdgeStyle;rounded=0;orthogonalLoop=1;jettySize=auto;html=1;fontColor=#000000;" edge="1" parent="1" source="ipQtGYI-5La4QHJU2IMe-48" target="ipQtGYI-5La4QHJU2IMe-50">
          <mxGeometry relative="1" as="geometry" />
        </mxCell>
        <mxCell id="ipQtGYI-5La4QHJU2IMe-48" value="&lt;div style=&quot;color: rgb(212, 212, 212); background-color: rgb(30, 30, 30); font-family: Menlo, Monaco, &amp;quot;Courier New&amp;quot;, monospace; line-height: 18px;&quot;&gt;&lt;div style=&quot;line-height: 18px;&quot;&gt;&lt;span style=&quot;color: #dcdcaa;&quot;&gt;initInjections&lt;/span&gt;&lt;/div&gt;&lt;/div&gt;" style="whiteSpace=wrap;html=1;fontColor=#000000;rounded=1;labelBackgroundColor=none;gradientColor=none;" vertex="1" parent="1">
          <mxGeometry x="130" y="460" width="120" height="60" as="geometry" />
        </mxCell>
        <mxCell id="ipQtGYI-5La4QHJU2IMe-53" value="" style="edgeStyle=orthogonalEdgeStyle;rounded=0;orthogonalLoop=1;jettySize=auto;html=1;fontColor=#000000;" edge="1" parent="1" source="ipQtGYI-5La4QHJU2IMe-50" target="ipQtGYI-5La4QHJU2IMe-52">
          <mxGeometry relative="1" as="geometry" />
        </mxCell>
        <mxCell id="ipQtGYI-5La4QHJU2IMe-59" value="" style="edgeStyle=orthogonalEdgeStyle;rounded=0;orthogonalLoop=1;jettySize=auto;html=1;fontColor=#000000;" edge="1" parent="1" source="ipQtGYI-5La4QHJU2IMe-50" target="ipQtGYI-5La4QHJU2IMe-58">
          <mxGeometry relative="1" as="geometry" />
        </mxCell>
        <mxCell id="ipQtGYI-5La4QHJU2IMe-50" value="&lt;meta charset=&quot;utf-8&quot;&gt;&lt;div style=&quot;color: rgb(212, 212, 212); background-color: rgb(30, 30, 30); font-family: Menlo, Monaco, &amp;quot;Courier New&amp;quot;, monospace; font-weight: normal; font-size: 12px; line-height: 18px;&quot;&gt;&lt;div&gt;&lt;span style=&quot;color: #dcdcaa;&quot;&gt;initState&lt;/span&gt;&lt;/div&gt;&lt;/div&gt;" style="whiteSpace=wrap;html=1;fontColor=#000000;rounded=1;labelBackgroundColor=none;gradientColor=none;" vertex="1" parent="1">
          <mxGeometry x="130" y="540" width="120" height="60" as="geometry" />
        </mxCell>
        <mxCell id="ipQtGYI-5La4QHJU2IMe-55" value="" style="edgeStyle=orthogonalEdgeStyle;rounded=0;orthogonalLoop=1;jettySize=auto;html=1;fontColor=#000000;" edge="1" parent="1" source="ipQtGYI-5La4QHJU2IMe-52" target="ipQtGYI-5La4QHJU2IMe-54">
          <mxGeometry relative="1" as="geometry" />
        </mxCell>
        <mxCell id="ipQtGYI-5La4QHJU2IMe-52" value="&lt;div style=&quot;color: rgb(212, 212, 212); background-color: rgb(30, 30, 30); font-family: Menlo, Monaco, &amp;quot;Courier New&amp;quot;, monospace; line-height: 18px;&quot;&gt;&lt;span style=&quot;color: #dcdcaa;&quot;&gt;initProvide&lt;/span&gt;&lt;/div&gt;" style="whiteSpace=wrap;html=1;fontColor=#000000;rounded=1;labelBackgroundColor=none;gradientColor=none;" vertex="1" parent="1">
          <mxGeometry x="130" y="620" width="120" height="60" as="geometry" />
        </mxCell>
        <mxCell id="ipQtGYI-5La4QHJU2IMe-57" value="" style="edgeStyle=orthogonalEdgeStyle;rounded=0;orthogonalLoop=1;jettySize=auto;html=1;fontColor=#000000;" edge="1" parent="1" source="ipQtGYI-5La4QHJU2IMe-54" target="ipQtGYI-5La4QHJU2IMe-56">
          <mxGeometry relative="1" as="geometry" />
        </mxCell>
        <mxCell id="ipQtGYI-5La4QHJU2IMe-54" value="&lt;div style=&quot;color: rgb(212, 212, 212); background-color: rgb(30, 30, 30); font-family: Menlo, Monaco, &amp;quot;Courier New&amp;quot;, monospace; line-height: 18px;&quot;&gt;&lt;span style=&quot;color: #dcdcaa;&quot;&gt;callHook&lt;/span&gt;(&lt;span style=&quot;color: #4fc1ff;&quot;&gt;vm&lt;/span&gt;, &lt;span style=&quot;color: #ce9178;&quot;&gt;&#39;created&#39;&lt;/span&gt;)&lt;/div&gt;" style="whiteSpace=wrap;html=1;fontColor=#000000;rounded=1;labelBackgroundColor=none;gradientColor=none;" vertex="1" parent="1">
          <mxGeometry x="130" y="700" width="120" height="60" as="geometry" />
        </mxCell>
        <mxCell id="ipQtGYI-5La4QHJU2IMe-56" value="&lt;div style=&quot;color: rgb(212, 212, 212); background-color: rgb(30, 30, 30); font-family: Menlo, Monaco, &amp;quot;Courier New&amp;quot;, monospace; line-height: 18px;&quot;&gt;&lt;span style=&quot;color: #dcdcaa;&quot;&gt;$mount&lt;/span&gt;&lt;/div&gt;" style="whiteSpace=wrap;html=1;fontColor=#000000;rounded=1;labelBackgroundColor=none;gradientColor=none;" vertex="1" parent="1">
          <mxGeometry x="130" y="780" width="120" height="60" as="geometry" />
        </mxCell>
        <mxCell id="ipQtGYI-5La4QHJU2IMe-61" value="" style="edgeStyle=orthogonalEdgeStyle;rounded=0;orthogonalLoop=1;jettySize=auto;html=1;fontColor=#000000;" edge="1" parent="1" source="ipQtGYI-5La4QHJU2IMe-58" target="ipQtGYI-5La4QHJU2IMe-60">
          <mxGeometry relative="1" as="geometry" />
        </mxCell>
        <mxCell id="ipQtGYI-5La4QHJU2IMe-58" value="&lt;div style=&quot;color: rgb(212, 212, 212); background-color: rgb(30, 30, 30); font-family: Menlo, Monaco, &amp;quot;Courier New&amp;quot;, monospace; line-height: 18px;&quot;&gt;&lt;span style=&quot;color: #dcdcaa;&quot;&gt;initProps&lt;/span&gt;&lt;/div&gt;" style="whiteSpace=wrap;html=1;fontColor=#000000;rounded=1;labelBackgroundColor=none;gradientColor=none;" vertex="1" parent="1">
          <mxGeometry x="330" y="540" width="120" height="60" as="geometry" />
        </mxCell>
        <mxCell id="ipQtGYI-5La4QHJU2IMe-63" value="" style="edgeStyle=orthogonalEdgeStyle;rounded=0;orthogonalLoop=1;jettySize=auto;html=1;fontColor=#000000;" edge="1" parent="1" source="ipQtGYI-5La4QHJU2IMe-60" target="ipQtGYI-5La4QHJU2IMe-62">
          <mxGeometry relative="1" as="geometry" />
        </mxCell>
        <mxCell id="ipQtGYI-5La4QHJU2IMe-60" value="&lt;div style=&quot;color: rgb(212, 212, 212); background-color: rgb(30, 30, 30); font-family: Menlo, Monaco, &amp;quot;Courier New&amp;quot;, monospace; line-height: 18px;&quot;&gt;&lt;span style=&quot;color: #dcdcaa;&quot;&gt;initSetup&lt;/span&gt;&lt;/div&gt;" style="whiteSpace=wrap;html=1;fontColor=#000000;rounded=1;labelBackgroundColor=none;gradientColor=none;" vertex="1" parent="1">
          <mxGeometry x="530" y="540" width="120" height="60" as="geometry" />
        </mxCell>
        <mxCell id="ipQtGYI-5La4QHJU2IMe-65" value="" style="edgeStyle=orthogonalEdgeStyle;rounded=0;orthogonalLoop=1;jettySize=auto;html=1;fontColor=#000000;" edge="1" parent="1" source="ipQtGYI-5La4QHJU2IMe-62" target="ipQtGYI-5La4QHJU2IMe-64">
          <mxGeometry relative="1" as="geometry" />
        </mxCell>
        <mxCell id="ipQtGYI-5La4QHJU2IMe-62" value="&lt;meta charset=&quot;utf-8&quot;&gt;&lt;div style=&quot;color: rgb(212, 212, 212); background-color: rgb(30, 30, 30); font-family: Menlo, Monaco, &amp;quot;Courier New&amp;quot;, monospace; font-weight: normal; font-size: 12px; line-height: 18px;&quot;&gt;&lt;div&gt;&lt;span style=&quot;color: #dcdcaa;&quot;&gt;initMethods&lt;/span&gt;&lt;/div&gt;&lt;/div&gt;" style="whiteSpace=wrap;html=1;fontColor=#000000;rounded=1;labelBackgroundColor=none;gradientColor=none;" vertex="1" parent="1">
          <mxGeometry x="730" y="540" width="120" height="60" as="geometry" />
        </mxCell>
        <mxCell id="ipQtGYI-5La4QHJU2IMe-67" value="" style="edgeStyle=orthogonalEdgeStyle;rounded=0;orthogonalLoop=1;jettySize=auto;html=1;fontColor=#000000;" edge="1" parent="1" source="ipQtGYI-5La4QHJU2IMe-64" target="ipQtGYI-5La4QHJU2IMe-66">
          <mxGeometry relative="1" as="geometry" />
        </mxCell>
        <mxCell id="ipQtGYI-5La4QHJU2IMe-71" value="" style="edgeStyle=orthogonalEdgeStyle;rounded=0;orthogonalLoop=1;jettySize=auto;html=1;fontColor=#000000;" edge="1" parent="1" source="ipQtGYI-5La4QHJU2IMe-64" target="ipQtGYI-5La4QHJU2IMe-70">
          <mxGeometry relative="1" as="geometry" />
        </mxCell>
        <mxCell id="ipQtGYI-5La4QHJU2IMe-64" value="&lt;div style=&quot;font-family: Menlo, Monaco, &amp;quot;Courier New&amp;quot;, monospace; line-height: 18px;&quot;&gt;&lt;span style=&quot;&quot;&gt;initData&lt;/span&gt;&lt;/div&gt;" style="whiteSpace=wrap;html=1;fontColor=default;rounded=1;labelBackgroundColor=none;gradientColor=none;" vertex="1" parent="1">
          <mxGeometry x="930" y="540" width="120" height="60" as="geometry" />
        </mxCell>
        <mxCell id="ipQtGYI-5La4QHJU2IMe-69" value="" style="edgeStyle=orthogonalEdgeStyle;rounded=0;orthogonalLoop=1;jettySize=auto;html=1;fontColor=#000000;" edge="1" parent="1" source="ipQtGYI-5La4QHJU2IMe-66" target="ipQtGYI-5La4QHJU2IMe-68">
          <mxGeometry relative="1" as="geometry" />
        </mxCell>
        <mxCell id="ipQtGYI-5La4QHJU2IMe-66" value="&lt;div style=&quot;color: rgb(212, 212, 212); background-color: rgb(30, 30, 30); font-family: Menlo, Monaco, &amp;quot;Courier New&amp;quot;, monospace; line-height: 18px;&quot;&gt;&lt;span style=&quot;color: #dcdcaa;&quot;&gt;initComputed&lt;/span&gt;&lt;/div&gt;" style="whiteSpace=wrap;html=1;fontColor=#000000;rounded=1;labelBackgroundColor=none;gradientColor=none;" vertex="1" parent="1">
          <mxGeometry x="1130" y="540" width="120" height="60" as="geometry" />
        </mxCell>
        <mxCell id="ipQtGYI-5La4QHJU2IMe-68" value="&lt;div style=&quot;color: rgb(212, 212, 212); background-color: rgb(30, 30, 30); font-family: Menlo, Monaco, &amp;quot;Courier New&amp;quot;, monospace; line-height: 18px;&quot;&gt;&lt;span style=&quot;color: #dcdcaa;&quot;&gt;initWatch&lt;/span&gt;&lt;/div&gt;" style="whiteSpace=wrap;html=1;fontColor=#000000;rounded=1;labelBackgroundColor=none;gradientColor=none;" vertex="1" parent="1">
          <mxGeometry x="1330" y="540" width="120" height="60" as="geometry" />
        </mxCell>
        <mxCell id="ipQtGYI-5La4QHJU2IMe-73" value="" style="edgeStyle=orthogonalEdgeStyle;rounded=0;orthogonalLoop=1;jettySize=auto;html=1;fontColor=#000000;" edge="1" parent="1" source="ipQtGYI-5La4QHJU2IMe-70" target="ipQtGYI-5La4QHJU2IMe-72">
          <mxGeometry relative="1" as="geometry" />
        </mxCell>
        <mxCell id="ipQtGYI-5La4QHJU2IMe-70" value="&lt;div style=&quot;font-family: Menlo, Monaco, &amp;quot;Courier New&amp;quot;, monospace; line-height: 18px;&quot;&gt;&lt;span style=&quot;&quot;&gt;observe&lt;/span&gt;(vm._&lt;span style=&quot;&quot;&gt;data&lt;/span&gt;)&lt;/div&gt;&lt;div style=&quot;font-family: Menlo, Monaco, &amp;quot;Courier New&amp;quot;, monospace; line-height: 18px;&quot;&gt;vm._data&#39;s observe is always default shallow&lt;/div&gt;&lt;div style=&quot;font-family: Menlo, Monaco, &amp;quot;Courier New&amp;quot;, monospace; line-height: 18px;&quot;&gt;&lt;div style=&quot;line-height: 18px;&quot;&gt;&lt;span style=&quot;&quot;&gt;ob = new&lt;/span&gt; &lt;span style=&quot;&quot;&gt;Observer&lt;/span&gt;(&lt;span style=&quot;&quot;&gt;vm._data&lt;/span&gt;, &lt;span style=&quot;&quot;&gt;shallow&lt;/span&gt;)&lt;/div&gt;&lt;div style=&quot;line-height: 18px;&quot;&gt;ob.dep = new Dep()&lt;br&gt;&lt;/div&gt;&lt;div style=&quot;line-height: 18px;&quot;&gt;vm._data.__ob__ = ob&lt;/div&gt;&lt;div style=&quot;line-height: 18px;&quot;&gt;walk(vm._data, shallow)&lt;/div&gt;&lt;/div&gt;" style="whiteSpace=wrap;html=1;fontColor=default;rounded=1;labelBackgroundColor=none;gradientColor=none;" vertex="1" parent="1">
          <mxGeometry x="827" y="670" width="326.25" height="140" as="geometry" />
        </mxCell>
        <mxCell id="ipQtGYI-5La4QHJU2IMe-79" value="" style="edgeStyle=orthogonalEdgeStyle;rounded=0;orthogonalLoop=1;jettySize=auto;html=1;fontColor=default;" edge="1" parent="1" source="ipQtGYI-5La4QHJU2IMe-72" target="ipQtGYI-5La4QHJU2IMe-78">
          <mxGeometry relative="1" as="geometry" />
        </mxCell>
        <mxCell id="ipQtGYI-5La4QHJU2IMe-72" value="&lt;div style=&quot;font-family: Menlo, Monaco, &amp;quot;Courier New&amp;quot;, monospace; line-height: 18px;&quot;&gt;&lt;div style=&quot;line-height: 18px;&quot;&gt;&lt;span style=&quot;&quot;&gt;for (k, v) in vm._data:&lt;/span&gt;&lt;/div&gt;&lt;div style=&quot;line-height: 18px;&quot;&gt;&lt;span style=&quot;&quot;&gt;defineReactive&lt;/span&gt;(&lt;span style=&quot;&quot;&gt;obj&lt;/span&gt;, &lt;span style=&quot;&quot;&gt;k&lt;/span&gt;, &lt;span style=&quot;&quot;&gt;v&lt;/span&gt;, &lt;span style=&quot;&quot;&gt;undefined&lt;/span&gt;, &lt;span style=&quot;&quot;&gt;shallow&lt;/span&gt;)&lt;/div&gt;&lt;div style=&quot;line-height: 18px;&quot;&gt;a closure dep instance create =&amp;gt; new Dep()&lt;/div&gt;&lt;/div&gt;" style="whiteSpace=wrap;html=1;fontColor=default;rounded=1;labelBackgroundColor=none;gradientColor=none;" vertex="1" parent="1">
          <mxGeometry x="795" y="860" width="390" height="140" as="geometry" />
        </mxCell>
        <mxCell id="ipQtGYI-5La4QHJU2IMe-78" value="every property&#39;s getter created:&lt;br&gt;Dep.target ?: closureDep.depend()" style="whiteSpace=wrap;html=1;rounded=1;labelBackgroundColor=none;gradientColor=none;" vertex="1" parent="1">
          <mxGeometry x="840" y="1120" width="300" height="120" as="geometry" />
        </mxCell>
      </root>
    </mxGraphModel>
  </diagram>
</mxfile>
